PathFileType	4	(X/Y/Z)	./resultDataOpenSim/trcMotMarkerGrf/sub06/qtm-04-05.trc
DataRate	CameraRate	NumFrames	NumMarkers	Units	OrigDataRate	OrigDataStartFrame	OrigNumFrames
250.000000	250.000000	9	24	m	250.000000	332	530
Frame#	Time	L.Toe.Tip			R.Toe.Tip			L.Ankle.Lat			R.Ankle.Lat			L.Ankle.Med			R.Ankle.Med			L.Heel			R.Heel			L.Knee.Lat			R.Knee.Lat			L.Knee.Med			R.Knee.Med			L.Thigh.Upper			R.Thigh.Upper			L.ASIS			R.ASIS			V.Sacral			L.Acromium			R.Acromium			C7			L.Elbow			R.Elbow			L.Wrist.Lat			R.Wrist.Lat
		X1	Y1	Z1	X2	Y2	Z2	X3	Y3	Z3	X4	Y4	Z4	X5	Y5	Z5	X6	Y6	Z6	X7	Y7	Z7	X8	Y8	Z8	X9	Y9	Z9	X10	Y10	Z10	X11	Y11	Z11	X12	Y12	Z12	X13	Y13	Z13	X14	Y14	Z14	X15	Y15	Z15	X16	Y16	Z16	X17	Y17	Z17	X18	Y18	Z18	X19	Y19	Z19	X20	Y20	Z20	X21	Y21	Z21	X22	Y22	Z22	X23	Y23	Z23	X24	Y24	Z24

332	1.324	0.36266317	0.10733043	-0.066090601	0.89693568	0.035742002	0.096192218	0.37347377	0.23934053	-0.088275625	0.76068672	0.059771228	0.11404197	0.40157959	0.23603677	-0.0076897928	0.78482268	0.080671423	0.027800787	0.33617806	0.29541558	-0.030094074	0.70743969	0.038338826	0.052046765	0.72028698	0.37264413	-0.14100869	0.85994758	0.43243432	0.15582858	0.73061098	0.35544589	-0.018798766	0.82616844	0.42564124	0.033936995	0.65988512	0.76130125	-0.11964846	0.72170008	0.78280309	0.22036179	0.74244054	0.81231804	-0.091963872	0.7942022	0.83229488	0.14877606	0.5870917	0.89888439	0.065776259	0.69631873	1.3116705	-0.12835899	0.72565346	1.2861806	0.23211491	0.63021314	1.331642	0.059617029	0.70803446	0.98556104	-0.18893207	0.66699386	0.96614647	0.28955719	0.90951591	0.84240345	-0.17140487	0.87032722	0.82984545	0.33539379
333	1.328	0.3760992	0.11029438	-0.067023616	0.89684744	0.035756879	0.09626702	0.3856751	0.2423855	-0.088489389	0.76057473	0.059768658	0.11412342	0.41379259	0.23902372	-0.0079245975	0.78471765	0.080754241	0.027901521	0.34791647	0.29800088	-0.0301111	0.70737579	0.038357595	0.052074312	0.73218852	0.37577678	-0.1412703	0.86088785	0.43242886	0.15591326	0.74205336	0.35849424	-0.018806427	0.82674372	0.42571064	0.03405858	0.66661946	0.76394719	-0.11944158	0.7261999	0.78423772	0.22049923	0.74880329	0.81476681	-0.091197312	0.79936421	0.83437606	0.14950681	0.59248917	0.90097284	0.065696954	0.70154591	1.3138648	-0.12832414	0.73113282	1.2887018	0.23214118	0.6355358	1.3338613	0.059791062	0.71087703	0.98806725	-0.18885599	0.67457888	0.96818952	0.28981573	0.90999497	0.84159434	-0.17353572	0.88078284	0.83525206	0.33319717
334	1.332	0.38977573	0.11300941	-0.068002604	0.89676494	0.035771877	0.096321134	0.39791496	0.24517985	-0.088688335	0.76041941	0.059787727	0.11422455	0.42607221	0.24177637	-0.0081518061	0.78461732	0.080826758	0.027981052	0.35961211	0.30026523	-0.030097344	0.70729968	0.03837582	0.052123835	0.74403565	0.37901796	-0.14151778	0.86180301	0.43246862	0.15599042	0.75357126	0.36171034	-0.018800679	0.82720814	0.42580217	0.034099015	0.67332599	0.76658325	-0.11906066	0.73058932	0.78571237	0.22087544	0.75506392	0.81719695	-0.090527405	0.8045236	0.83641941	0.15022372	0.59789687	0.90306688	0.065658569	0.70677231	1.3160359	-0.1282863	0.73661449	1.291219	0.23215975	0.64085962	1.3360682	0.059945778	0.71367559	0.99058965	-0.18872464	0.68215691	0.97027417	0.29011191	0.91038733	0.8408676	-0.17567555	0.89112637	0.84074526	0.3309726
335	1.336	0.40368294	0.1154782	-0.069023605	0.89668605	0.035787676	0.096355416	0.41019707	0.24770815	-0.088873248	0.76024178	0.059828169	0.1143344	0.43845726	0.24427237	-0.0083941775	0.78453073	0.080887227	0.028027736	0.37127125	0.30219349	-0.030051359	0.70720975	0.038396269	0.052199998	0.75581639	0.38234893	-0.14173779	0.862682	0.43254556	0.15601868	0.76537713	0.36514804	-0.018813898	0.82767372	0.42591975	0.034008622	0.68002404	0.76920877	-0.11880169	0.73514863	0.78728394	0.22125538	0.76125548	0.81960344	-0.089920661	0.80968251	0.83841142	0.15092994	0.60330145	0.90515601	0.065712793	0.71198656	1.3181767	-0.12823047	0.74210267	1.2937288	0.23217031	0.64622454	1.3382267	0.060055759	0.71640314	0.99311238	-0.1886498	0.68971923	0.97238628	0.29043433	0.91069863	0.84019758	-0.17782742	0.90138632	0.84630048	0.32872326
336	1.34	0.41781515	0.11769449	-0.070087471	0.89661057	0.035802613	0.096370126	0.42253137	0.24995657	-0.08904717	0.76009341	0.059878324	0.11442389	0.45091345	0.24650391	-0.0086462612	0.78445688	0.080938614	0.028041466	0.38291235	0.30375304	-0.029961205	0.70712193	0.038422239	0.0522788	0.76751668	0.38575045	-0.14192158	0.86353334	0.43263733	0.15597188	0.77744869	0.36878122	-0.018852484	0.82815044	0.42606704	0.033799806	0.68673828	0.77182413	-0.11875156	0.73989732	0.78890625	0.22144481	0.76757409	0.8220276	-0.089247166	0.81486228	0.84034905	0.15161745	0.60868768	0.907233	0.065864506	0.71719484	1.3202836	-0.12816134	0.74760195	1.2962271	0.23217544	0.65167987	1.3402965	0.060084569	0.71907585	0.99562619	-0.18871328	0.69725634	0.97451119	0.29077317	0.91093727	0.83956498	-0.17999226	0.91156983	0.85188293	0.32645105
337	1.344	0.43217099	0.11964854	-0.071201603	0.89653948	0.035814606	0.096364064	0.43492603	0.25190995	-0.089213367	0.7600006	0.05992535	0.11447542	0.46337667	0.24846923	-0.0088824111	0.78438262	0.080990516	0.028037143	0.39455607	0.3049164	-0.029824565	0.7070563	0.038457591	0.052328429	0.77910995	0.38921704	-0.1420705	0.86438219	0.43273372	0.15586335	0.78952356	0.37249687	-0.018850069	0.82859903	0.42624448	0.033520056	0.69349301	0.77442659	-0.11889755	0.74469115	0.79049527	0.22145879	0.77412692	0.82450446	-0.088440486	0.82010645	0.84224397	0.15227018	0.61406601	0.90928029	0.065954324	0.72240817	1.3223564	-0.12809327	0.75311591	1.2987074	0.23217749	0.65721777	1.3422846	0.060033138	0.72174221	0.99813359	-0.18890248	0.704772	0.97663789	0.29111994	0.91110698	0.83897069	-0.18215961	0.92168758	0.85748395	0.32415609
338	1.348	0.44674328	0.12133615	-0.072365901	0.89647436	0.035824115	0.096336473	0.44737971	0.25355179	-0.089373771	0.75994429	0.059963092	0.11449491	0.47582659	0.25015731	-0.0090826162	0.78429703	0.081051308	0.028029621	0.40620055	0.30570638	-0.029687684	0.70701585	0.038502879	0.052343162	0.79056392	0.39274577	-0.14217743	0.86524508	0.4328439	0.15572482	0.80132434	0.37619275	-0.018724773	0.82901215	0.42644653	0.033206786	0.70028216	0.77700879	-0.11924817	0.7494539	0.7920041	0.22140864	0.78078473	0.82702549	-0.087574634	0.82545321	0.84411091	0.15287851	0.619502	0.91124818	0.06555324	0.72763054	1.3243951	-0.12803604	0.75864712	1.3011623	0.23217712	0.66275857	1.3442503	0.059959819	0.72444676	1.0006416	-0.18912281	0.71227189	0.97875976	0.29147365	0.9112097	0.83842412	-0.18431749	0.93175803	0.86311833	0.32183465
339	1.352	0.46150832	0.12276078	-0.07356345	0.89641674	0.035833618	0.096288878	0.4598836	0.25487069	-0.089527932	0.75989562	0.059986082	0.11449307	0.48829551	0.25154055	-0.009240862	0.78420243	0.08112119	0.028021282	0.41781999	0.30618595	-0.029632444	0.70698817	0.038555029	0.052339582	0.80186429	0.39632489	-0.14222758	0.86611624	0.43297811	0.15557757	0.81277238	0.37987717	-0.018455014	0.82942478	0.42666813	0.032870504	0.70705738	0.77956547	-0.11978539	0.75419494	0.79342762	0.22136675	0.78735048	0.82955267	-0.086760182	0.83088161	0.84594491	0.15345371	0.62511252	0.91306338	0.064144968	0.73286175	1.3263976	-0.12798946	0.76419567	1.3035866	0.23217304	0.66822874	1.3462446	0.059927991	0.72720272	1.0031454	-0.18926834	0.7197541	0.98087284	0.29184329	0.91125331	0.83792972	-0.18646352	0.94176632	0.86878993	0.31948516
340	1.356	0.47643456	0.12392647	-0.07477229	0.89636787	0.035843888	0.096224917	0.47243264	0.25586133	-0.089679744	0.75984682	0.059984285	0.1144701	0.50084282	0.25258188	-0.0093708095	0.78410893	0.081194707	0.028006662	0.42940104	0.30637868	-0.029693657	0.7069613	0.038611579	0.05233024	0.81303815	0.39993787	-0.14221626	0.86696076	0.43313099	0.15541183	0.82393472	0.3836322	-0.018064101	0.82984959	0.42691519	0.032506473	0.71374994	0.78210726	-0.12043183	0.75892875	0.79477293	0.22134449	0.79376082	0.83205544	-0.086033533	0.83628996	0.84770994	0.15402637	0.63096647	0.91469771	0.061738844	0.7381021	1.3283585	-0.12794922	0.76975826	1.3059771	0.23216185	0.67362408	1.3482656	0.059951894	0.72998816	1.0056238	-0.18927857	0.72721083	0.98297224	0.29223418	0.91125281	0.83748438	-0.18859778	0.95164104	0.87446196	0.31711474
